<svg width="1920" height="1080" viewBox="0 0 1920 1080" fill="none" xmlns="http://www.w3.org/2000/svg">
<rect width="1920" height="1080" fill="#111827"/>
<path d="M794.556 354.925C786.689 351.707 786.688 351.709 786.687 351.711L786.685 351.716L786.678 351.732L786.658 351.781C786.642 351.821 786.62 351.877 786.591 351.947C786.535 352.088 786.455 352.29 786.354 352.548C786.151 353.066 785.862 353.815 785.504 354.775C784.788 356.695 783.792 359.464 782.647 362.929C780.359 369.85 777.46 379.591 775.006 390.907C770.378 412.248 767.103 440.195 773.337 465.515C758.706 490.106 749.771 518.308 748.194 548.966L736.639 546.234L728.372 544.279L726.412 552.545L722.229 570.19L720.268 578.464L728.543 580.422L749.886 585.473C752.339 601.953 757.085 617.197 763.833 631.136L738.911 641.103L731.024 644.257L734.173 652.146L740.897 668.992L744.05 676.892L751.949 673.733L783.047 661.291C821.586 708.474 887.343 732.796 960.5 732.796C1033.64 732.796 1099.41 708.474 1137.95 661.291L1169.05 673.733L1176.95 676.892L1180.1 668.992L1186.83 652.146L1189.98 644.257L1182.09 641.103L1157.17 631.136C1163.91 617.198 1168.66 601.954 1171.1 585.473L1192.46 580.423L1200.73 578.465L1198.77 570.19L1194.59 552.544L1192.63 544.278L1184.36 546.233L1172.79 548.968C1171.22 518.301 1162.31 490.096 1147.66 465.498C1153.89 440.179 1150.62 412.237 1145.99 390.9C1143.54 379.586 1140.64 369.847 1138.35 362.927C1137.21 359.463 1136.21 356.694 1135.5 354.775C1135.14 353.815 1134.85 353.066 1134.65 352.549C1134.55 352.29 1134.47 352.089 1134.41 351.948C1134.38 351.878 1134.36 351.822 1134.34 351.782L1134.32 351.733L1134.32 351.717L1134.31 351.712C1134.31 351.709 1134.31 351.707 1126.44 354.925M794.556 354.925C797.891 347.106 797.892 347.107 797.893 347.107L797.897 347.109L797.907 347.113L797.939 347.127L798.055 347.177C798.155 347.22 798.299 347.282 798.484 347.363C798.856 347.525 799.395 347.761 800.087 348.069C801.47 348.685 803.461 349.586 805.93 350.741C810.864 353.05 817.723 356.384 825.45 360.496C839.52 367.985 856.918 378.289 870.763 389.9C898.373 382.33 928.919 380.257 960.5 380.257C991.987 380.257 1022.33 382.668 1049.79 390.267C1063.64 378.568 1081.14 368.177 1095.31 360.625C1103.09 356.475 1110.01 353.109 1114.99 350.777C1117.48 349.611 1119.49 348.701 1120.89 348.079C1121.59 347.768 1122.13 347.529 1122.51 347.366C1122.7 347.284 1122.84 347.221 1122.94 347.178L1123.06 347.127L1123.09 347.113L1123.1 347.109L1123.11 347.107C1123.11 347.107 1123.11 347.107 1126.44 354.925M794.556 354.925L786.689 351.707L789.955 343.721L797.891 347.106L794.556 354.925ZM1126.44 354.925L1123.11 347.107L1131.05 343.721L1134.31 351.707L1126.44 354.925Z" fill="url(#paint0_linear_158_11)" stroke="url(#paint1_linear_158_11)" stroke-width="17"/>
<path d="M935.359 504.154L1014.23 552.872V570.513L936.385 619.231L927.051 606.513L999.462 561.795L927.051 517.179L935.359 504.154Z" fill="url(#paint2_linear_158_11)"/>
<defs>
<linearGradient id="paint0_linear_158_11" x1="960.5" y1="354.925" x2="960.5" y2="724.296" gradientUnits="userSpaceOnUse">
<stop stop-color="#0F1217"/>
<stop offset="1" stop-color="#0C1929"/>
</linearGradient>
<linearGradient id="paint1_linear_158_11" x1="755.513" y1="362.975" x2="1129.84" y2="718.037" gradientUnits="userSpaceOnUse">
<stop stop-color="#76ADFF"/>
<stop offset="1" stop-color="#EDFF7C"/>
</linearGradient>
<linearGradient id="paint2_linear_158_11" x1="950.4" y1="515.75" x2="969.95" y2="649.437" gradientUnits="userSpaceOnUse">
<stop stop-color="#00B5EF"/>
<stop offset="1" stop-color="#FFEA7B"/>
</linearGradient>
</defs>
</svg>
