<svg width="1920" height="1080" viewBox="0 0 1920 1080" fill="none" xmlns="http://www.w3.org/2000/svg">
<rect width="1920" height="1080" fill="#111827"/>
<path d="M1107 666.167C1107 666.167 1085.81 567.838 1070.2 519.776C1066.4 508.088 1061.93 496.637 1056.35 486.147C1084.66 480.109 1098.59 459.638 1094.43 438.189C1089.25 411.512 1061.89 410.031 1048.59 415.183C1044.2 416.885 1040.08 413.822 1038.09 410.702C1023.97 381.403 996.071 384.836 977.582 392.246C970.893 394.927 965.721 393.213 962.047 384.691C955.396 369.275 919.899 357.419 899.637 377.982C872.096 405.932 890.734 441.037 911.158 460.246C888.724 477.475 877.99 501.117 873.893 517.536C827.049 537.653 809.202 586.844 813.662 606.943C828.164 593.536 851.587 576.776 878.931 577.477C883.883 579.04 887.881 582.554 889.504 589.067C893.97 606.943 892.855 712 892.855 712L926.313 677.357L951.966 709.765L978.738 669.536L1007.73 705.289L1026.69 662.826L1072.43 697.468L1070.2 651.647L1107 666.167ZM937.649 547.859C929.48 547.859 922.859 541.226 922.859 533.039C922.859 524.853 929.48 518.219 937.649 518.219C945.819 518.219 952.439 524.853 952.439 533.039C952.439 541.225 945.819 547.859 937.649 547.859Z" fill="url(#paint0_linear_158_15)"/>
<defs>
<linearGradient id="paint0_linear_158_15" x1="960" y1="367" x2="960" y2="712" gradientUnits="userSpaceOnUse">
<stop stop-color="#FFFACB"/>
<stop offset="1" stop-color="#3194F0"/>
</linearGradient>
</defs>
</svg>
