<svg width="1920" height="1080" viewBox="0 0 1920 1080" fill="none" xmlns="http://www.w3.org/2000/svg">
<rect width="1920" height="1080" fill="#191924"/>
<path d="M574.43 661.018C563.102 661.018 553.434 657.6 545.426 650.764C537.809 644.416 534 635.529 534 624.104C534 612.873 537.809 604.182 545.426 598.029C553.141 591.389 562.809 588.068 574.43 588.068C587.027 588.068 597.232 591.389 605.045 598.029C612.857 604.67 616.764 613.361 616.764 624.104C616.764 635.041 612.76 643.928 604.752 650.764C596.646 657.404 586.686 660.725 574.869 660.725L574.43 661.018Z" fill="#EA383B"/>
<path d="M754.02 656.77H632.291V612.678H655.729V542.805H632.291V499.885H655.729V485.822C655.729 446.369 673.111 426.643 707.877 426.643C715.494 426.643 723.697 427.375 732.486 428.84C741.275 430.207 748.453 431.77 754.02 433.527V476.74C746.695 475.568 741.617 474.982 738.785 474.982C730.191 474.982 725.895 481.477 725.895 494.465V499.885H754.02V542.805H725.895V612.678H754.02V656.77Z" fill="white"/>
<path d="M834.146 484.504C821.939 484.504 811.881 481.623 803.971 475.861C796.061 470.1 792.105 461.799 792.105 450.959C792.105 440.119 796.061 431.916 803.971 426.35C811.881 420.783 822.037 418 834.439 418C846.842 418 856.9 420.734 864.615 426.203C872.428 431.672 876.334 439.924 876.334 450.959C876.334 461.799 872.33 470.1 864.322 475.861C856.412 481.623 846.354 484.504 834.146 484.504ZM888.053 612.678V656.77H780.094V612.678H798.99V545.148H780.094V509.113L869.156 499.885V612.678H888.053Z" fill="white"/>
<path d="M1029.56 612.678V656.77H911.051V612.678H936.832V477.619H911.051V437.775L1007 428.107V612.678H1029.56Z" fill="white"/>
<path d="M1139.13 659.406C1120.96 659.406 1105.19 656.037 1091.81 649.299C1078.34 642.658 1067.98 633.137 1060.76 620.734C1053.63 608.332 1050.06 593.83 1050.06 577.229C1050.06 560.822 1053.58 546.564 1060.61 534.455C1067.54 522.443 1077.36 513.166 1090.05 506.623C1102.75 500.08 1117.64 496.809 1134.73 496.809C1150.46 496.809 1164.32 499.885 1176.33 506.037C1188.35 512.287 1197.62 521.125 1204.17 532.551C1210.81 543.977 1214.13 557.307 1214.13 572.541C1214.13 577.814 1213.35 582.795 1211.78 587.482H1120.52C1120.52 596.662 1123.99 604.035 1130.92 609.602C1137.86 615.07 1146.21 617.805 1155.97 617.805C1163.39 617.805 1171.55 616.535 1180.44 613.996C1189.32 611.359 1198.26 607.307 1207.24 601.838L1209.73 602.717V642.121C1199.67 647.883 1189.32 652.229 1178.68 655.158C1168.13 657.99 1154.95 659.406 1139.13 659.406ZM1120.52 557.453V561.701H1158.02V558.625C1158.02 551.691 1156.41 545.734 1153.19 540.754C1150.06 535.676 1145.38 533.137 1139.13 533.137C1133.95 533.137 1129.56 535.725 1125.94 540.9C1122.33 545.979 1120.52 551.496 1120.52 557.453Z" fill="white"/>
<path d="M1322.23 659.406C1302.21 659.406 1284.49 654.133 1269.06 643.586L1264.22 656.77H1236.98V598.908H1269.64C1270.91 606.33 1274.38 612.971 1280.04 618.83C1285.71 624.689 1292.25 627.619 1299.67 627.619C1302.51 627.619 1304.95 626.838 1307 625.275C1309.15 623.713 1310.22 621.125 1310.22 617.512C1310.22 613.898 1308.17 610.627 1304.07 607.697C1299.87 604.67 1293.62 601.203 1285.32 597.297C1275.26 592.316 1267.06 587.775 1260.71 583.674C1254.26 579.572 1248.7 574.201 1244.01 567.561C1239.32 560.822 1236.98 552.766 1236.98 543.391C1236.98 533.723 1240.15 525.324 1246.5 518.195C1252.85 511.164 1261.2 505.842 1271.55 502.229C1281.9 498.615 1293.18 496.809 1305.39 496.809C1321.3 496.809 1336.1 501.008 1349.77 509.406L1353.43 499.885H1377.75V546.613H1349.48C1347.04 540.266 1343.52 535.285 1338.93 531.672C1334.34 528.059 1328.97 526.252 1322.82 526.252C1315.59 526.252 1311.98 528.547 1311.98 533.137C1312.08 536.262 1313.98 538.947 1317.69 541.193C1321.4 543.342 1327.41 546.271 1335.71 549.982C1340.88 552.131 1345.62 554.279 1349.92 556.428C1354.21 558.576 1358.07 560.627 1361.49 562.58C1368.33 566.584 1374.28 572.248 1379.36 579.572C1384.44 586.799 1386.98 595.832 1386.98 606.672C1386.98 618.195 1384 627.863 1378.04 635.676C1372.09 643.586 1364.18 649.543 1354.31 653.547C1344.45 657.453 1333.76 659.406 1322.23 659.406Z" fill="white"/>
</svg>
