<svg width="100" height="96" viewBox="0 0 100 96" fill="none" xmlns="http://www.w3.org/2000/svg">
<path d="M31.2087 32.4199H25.44C20.4695 32.4199 17.9843 32.4199 16.0858 33.3873C14.4159 34.2381 13.0582 35.5958 12.2073 37.2658C11.24 39.1642 11.24 41.6495 11.24 46.6199V71.4699C11.24 76.4404 11.24 78.9258 12.2073 80.8242C13.0582 82.494 14.4159 83.8519 16.0858 84.7025C17.9843 85.6699 20.4695 85.6699 25.44 85.6699H31.2087M66.7087 32.4199H72.4775C77.4479 32.4199 79.9334 32.4199 81.8317 33.3873C83.5016 34.2381 84.8594 35.5958 85.7101 37.2658C86.6775 39.1642 86.6775 41.6495 86.6775 46.6199V71.4699C86.6775 76.4404 86.6775 78.9258 85.7101 80.8242C84.8594 82.494 83.5016 83.8519 81.8317 84.7025C79.9334 85.6699 77.4479 85.6699 72.4775 85.6699H66.7087M48.9587 32.4199V72.3574M48.9587 85.6699H49.0031M91.115 63.4824V54.6074" stroke="#64CBFF" stroke-width="10" stroke-linecap="round" stroke-linejoin="round"/>
</svg>
