<svg width="2880" height="1880" viewBox="0 0 2880 1880" fill="none" xmlns="http://www.w3.org/2000/svg">
<rect width="2880" height="1880" fill="#1E1E1E"/>
<path d="M1062 1317L1245.21 978.216L1263.48 944.926L1335.99 800.731L1363.85 820.962L1390.42 836.412L1443.56 861.425L1390.42 819.675L1363.85 794.661L1347.25 777.373L1385.62 692.217L1409.43 633.546L1438.58 562L1499.28 701.965L1533.97 778.108L1584.89 879.633L1664.97 1034.13L1726.22 1148.34L1681.57 1126.27L1651.68 1115.61L1618.66 1106.23L1664.97 1131.42L1706.48 1159.56L1752.79 1196.9L1817 1315.9L1720.5 1263.29L1651.68 1229.09L1568.1 1199.47L1521.42 1188.62L1526.22 1141.72L1521.42 1098.5L1512.2 1064.48L1492.08 1029.71L1470.68 1010.59L1451.68 1002.49L1438.76 999.734L1425.11 1002.49L1407.95 1010.59L1386.92 1029.71L1370.49 1057.85L1359.42 1089.67L1354.63 1125.17V1161.4L1359.42 1188.62L1318.65 1196.9L1256.29 1217.87L1183.96 1248.58L1125.1 1279.3L1078.61 1305.6L1120.67 1226.69V1248.58L1104.99 1279.3L1176.58 1238.28L1251.49 1204.62L1315.33 1182.74L1339.68 1175.75L1334.88 1147.98L1337.84 1109.54L1321.23 1107.7L1315.33 1147.98L1315.7 1166.92L1248.54 1186.42L1176.58 1217.87L1135.06 1241.96L1132.11 1217.87L1150.19 1182.74L1155.36 1200.95L1144 1223.5L1179 1196.9L1162 1166.92L1176.58 1136.94L1183.96 1156.99L1195.58 1186.42L1248.54 1169.13L1293 1154L1303.7 1105.12L1309.05 1083.05L1346.32 1089.67L1354.63 1054.91L1334.88 1049.03L1329.72 1074.04L1310.9 1068.15L1315.33 1044.61L1299 1036.7L1271.05 1141.72L1240.42 1144.3L1204.07 1159.19L1190.23 1125.17L1240.42 1019.41L1256.29 1025.67L1209.61 1122.23L1215.88 1136.94L1237.5 1127.5L1256.29 1118.92L1260.71 1097.03L1251.49 1094.82L1248.54 1111.74L1234.88 1115.05L1222.15 1118.92L1240.42 1078.64L1265.88 1083.05L1282.3 1033.02L1265.88 1029.71L1271.05 1014.63L1245.58 1004.33L1339.31 817.284L1354.63 827.951L1390.42 850.758L1438.76 868.966V905.199L1412.38 894.899L1416.07 873.748L1390.42 864.92L1354.63 841.929L1280.46 984.653L1282.3 1002.49L1285.99 1019.41L1317.54 1029.71L1323.08 1010.59L1339.31 1014.63L1335.99 1033.02L1359.42 1041.67L1370.49 1019.41L1397.99 999.734L1377.14 978.216L1354.63 999.734L1323.08 989.803L1309.05 999.734L1305.18 1010.59L1294.85 1007.28L1291.53 984.653L1354.63 861.425L1380.09 880.369L1359.42 929.292L1339.31 922.855L1317.54 969.203L1354.63 982.078L1370.49 965.893L1339.31 955.041L1346.32 938.488L1370.49 947.317L1390.42 905.199L1438.76 919.544V942.167L1390.42 938.488L1384.15 955.041L1407.95 989.803L1438.76 982.078V965.893H1412.38L1406.1 955.041H1438.76L1470.68 957.616L1451.68 982.078L1470.68 989.803L1496.51 955.041L1451.68 919.544V868.966L1457.4 850.758L1390.42 800.731L1370.49 778.108L1438.76 595.106L1484.89 701.965H1451.68L1443.56 675.48H1457.4L1438.76 630.235L1390.42 771.303L1428.43 777.373V748.497H1412.38L1428.43 701.965L1443.56 720.173L1493.56 723.484L1520.68 778.108L1499.28 777.373C1495.77 764.866 1487.99 739.853 1484.89 739.853C1481.79 739.853 1456.04 739.853 1443.56 739.853V794.661L1405.18 788.96L1457.4 832.365V759.716H1475.48L1499.28 804.409H1530.65L1571.98 879.633L1500.94 873.748V850.758L1544.3 861.425L1530.65 823.905H1500.94L1475.48 800.731H1466.25L1470.68 832.365H1496.51L1463.12 868.966L1466.25 913.475L1500.94 938.488V913.475L1484.89 900.417V887.174L1578.99 894.899L1651.68 1034.13H1608.32L1584.89 989.803H1603.53L1618.66 1019.41H1629.36L1603.53 965.893L1578.99 969.203L1533.97 1007.46L1507.03 1002.49L1565.33 955.041L1589.69 951.363L1577.51 917.153L1556.48 913.475L1562.75 942.167H1526.22V913.475H1512.2V978.216L1481.57 1002.49L1516.25 1034.13H1547.07V1014.63L1569.21 999.734L1584.89 1034.13L1589.69 1054.91H1521.42L1526.22 1083.05H1608.32L1607.77 1051.42H1651.68L1681.57 1098.5L1618.66 1089.67L1529.83 1093.53L1537.84 1141.72L1533.41 1180.35L1571.98 1188.62L1578.99 1145.22L1551.5 1141.72L1544.3 1105.12H1595.59L1589.69 1125.17H1562.75V1135.84L1611.28 1141.72L1618.66 1125.17L1661.28 1145.22L1740.06 1199.47L1790.98 1290.7L1720.5 1244.72V1224.67L1751.32 1247.11L1726.22 1206.65L1681.57 1170.97L1671.42 1196.9L1706.48 1213.08V1240.86L1629.36 1206.65L1638.21 1180.35L1657.77 1188.62L1668.1 1165.26L1629.36 1141.72L1611.28 1199.47L1589.69 1193.04L1595.59 1152.57" stroke="#1793D1" stroke-width="2"/>
</svg>
